<?xml version="1.0" encoding="UTF-8" standalone="no"?>
<!-- Created with Inkscape (http://www.inkscape.org/) -->

<svg
   width="1159.0706"
   height="481.55603"
   viewBox="0 0 306.67075 127.4117"
   version="1.1"
   id="svg5"
   xml:space="preserve"
   xmlns="http://www.w3.org/2000/svg"
   xmlns:svg="http://www.w3.org/2000/svg"><defs
     id="defs2" /><g
     id="g6359"
     style="display:inline;fill:#222222;fill-opacity:1;stroke-width:1.32292;stroke-dasharray:none;paint-order:markers fill stroke"
     transform="translate(-201.32925,-158.33842)"><path
       id="path6347"
       style="display:inline;fill:#222222;fill-opacity:1;fill-rule:evenodd;stroke:#ff090f;stroke-width:1.32292;stroke-linejoin:miter;stroke-miterlimit:20;stroke-dasharray:none;stroke-opacity:1;paint-order:markers fill stroke;stop-color:#000000"
       d="m 534.29762,180.51973 c 0,0 -22.0127,0.67748 -48.08905,4.74131 -26.07633,4.06386 -66.37656,16.93293 -107.35366,37.92947 -40.97711,20.99654 -84.22179,36.99302 -79.21118,20.11092 3.59196,-12.10232 35.61126,-27.67066 35.61126,-27.67066 0,0 -40.79901,10.32264 -70.52955,42.25943 -15.3704,16.51102 -20.65507,38.11085 -20.65507,38.11085 0,0 10.33784,-13.11967 31.33091,-23.84609 21.59571,-11.03434 51.97822,-18.14721 51.97822,-18.14721 0,0 -19.70102,8.98974 -28.13587,13.38919 -8.12681,4.23879 -26.07191,14.25587 -26.07191,14.25587 0,0 31.97236,-9.21007 52.58478,-13.73581 25.0323,-5.49619 59.80498,-10.56837 59.80498,-10.56837 0,0 -33.87945,8.74979 -50.05431,15.28537 -11.74893,4.74726 -33.86512,17.2713 -33.86512,17.2713 l 12.71551,0.73432 c 0,0 4.08341,-5.01888 25.64391,-14.22652 11.58222,-4.9463 31.90968,-9.50898 31.90968,-9.50898 0,0 -16.83723,7.46907 -24.80055,12.0618 -6.45059,3.72026 -18.51825,12.49588 -18.51825,12.49588 l 11.21637,0.0718 c 14.15575,-11.9746 40.13045,-25.233 60.2449,-32.56546 30.38917,-10.75379 51.15605,-5.67149 51.15605,-5.67149 0,0 -12.27104,11.60478 -27.51047,18.54719 -13.13263,5.98266 -31.37573,10.13192 -36.19004,11.16986 -8.65838,1.88019 -24.82727,3.79064 -33.50727,5.58702 l 188.08492,15.18949 20.65765,-44.7027 c 0,0 -22.20329,8.9658 -39.55227,14.62065 -27.35023,8.91473 -87.78156,10.43984 -87.78156,10.43984 0,0 59.17895,-8.16985 86.59627,-19.24482 16.47872,-6.65641 45.47887,-27.82828 45.47887,-27.82828 0,0 -39.9613,-15.91634 -66.37631,-17.94825 -26.41499,-2.03192 -73.82701,5.07979 -73.82701,5.07979 0,0 32.84959,-12.19149 67.39227,-16.25534 34.54269,-4.06385 72.81105,1.35444 72.81105,1.35444 l 0.33849,-13.88494 c 0,0 -15.57833,-0.33848 -29.8018,-0.33848 -14.22346,0 -34.88108,2.3704 -34.88108,2.3704 l 20.31918,-5.0798 c 0,0 -18.37011,0.90988 -27.43089,2.3704 -16.38105,2.64049 -48.42753,11.51454 -48.42753,11.51454 0,0 27.84175,-11.95334 42.33178,-16.25533 14.49648,-4.30393 44.3637,-9.48263 44.3637,-9.48263 z m -61.63859,43.57167 c 17.53448,0.1057 26.22199,3.65844 29.33255,11.28803 3.58177,8.78539 -5.67362,19.7507 -25.51007,28.10423 -11.49155,4.83932 -29.62494,10.98742 -29.62494,10.98742 l 16.03949,0.0312 c 0,0 -12.32418,2.45097 -26.26586,4.86927 -11.73829,2.03611 -35.44642,4.5775 -35.44642,4.5775 0,0 9.2353,-2.29388 25.47183,-8.48114 11.26401,-4.29238 21.60291,-11.39888 21.60291,-11.39888 l -4.74294,5.91692 c 0,0 20.79528,-10.30867 15.54994,-18.57394 -8.59361,-13.54122 -87.38368,-0.62569 -134.38256,12.0109 -7.61277,2.04683 -21.07723,5.72212 -21.07723,5.72212 0,0 11.3452,-5.71958 18.83034,-8.90952 33.95567,-14.47092 74.7133,-26.27532 98.90804,-31.11308 11.67606,-2.33463 37.67701,-5.11327 51.31492,-5.03106 z" /><path
       style="display:inline;fill:#222222;fill-opacity:1;fill-rule:evenodd;stroke:#113aff;stroke-width:1.32292;stroke-linejoin:miter;stroke-miterlimit:20;stroke-dasharray:none;stroke-opacity:1;paint-order:markers fill stroke;stop-color:#000000"
       d="m 367.34201,248.79899 c 0,0 36.57057,-12.32542 74.8013,-17.71684 14.10162,-1.98865 46.90058,-4.51063 51.43853,6.62008 2.93928,7.2095 -6.59439,13.37295 -15.46191,18.37702 -8.71277,4.91676 -15.52397,7.34003 -15.52397,7.34003 0,0 8.36132,-7.82881 5.46934,-14.76074 -7.68482,-18.4201 -100.72329,0.14045 -100.72329,0.14045 z"
       id="path6349" /><path
       style="fill:#222222;fill-opacity:1;fill-rule:evenodd;stroke:#113aff;stroke-width:1.32292;stroke-linejoin:miter;stroke-miterlimit:20;stroke-dasharray:none;stroke-opacity:1;paint-order:markers fill stroke;stop-color:#000000"
       d="m 313.16784,233.70095 c 0,0 -9.70835,6.43818 -7.84429,10.63027 1.86046,4.184 12.86323,-0.0343 12.86323,-0.0343 0,0 -2.61595,-0.003 -6.03983,-1.16678 -0.56672,-0.19261 -1.73929,-1.33938 -2.04239,-2.32555 -0.31865,-1.03678 0.11246,-2.58573 0.40338,-3.22884 0.80209,-1.77308 2.6599,-3.87481 2.6599,-3.87481 z"
       id="path6351" /><path
       style="fill:#222222;fill-opacity:1;fill-rule:evenodd;stroke:#113aff;stroke-width:1.32292;stroke-linejoin:miter;stroke-miterlimit:20;stroke-dasharray:none;stroke-opacity:1;paint-order:markers fill stroke;stop-color:#000000"
       d="m 283.72196,233.42557 c 0,0 -23.76813,10.24201 -40.62401,27.93979 -17.54119,18.41732 -40.27118,44.31157 -40.27118,44.31157 l 25.8622,-0.7184 c 0,0 13.40635,-29.44192 28.3766,-48.0127 11.36838,-14.10262 26.65639,-23.52026 26.65639,-23.52026 z"
       id="path6353" /><path
       style="fill:#222222;fill-opacity:1;fill-rule:evenodd;stroke:#113aff;stroke-width:1.32292;stroke-linejoin:miter;stroke-miterlimit:20;stroke-dasharray:none;stroke-opacity:1;paint-order:markers fill stroke;stop-color:#000000"
       d="m 429.68505,195.01289 c 0,0 22.23558,-12.27698 46.7734,-19.99955 33.35745,-10.49829 70.61177,-15.9279 70.61177,-15.9279 l 2.9047,16.33759 c 0,0 -33.21658,-1.93364 -66.23539,4.33147 -30.66968,5.81938 -54.05448,15.25839 -54.05448,15.25839 z"
       id="path6355" /><path
       style="display:inline;fill:#222222;fill-opacity:1;fill-rule:evenodd;stroke:#113aff;stroke-width:1.32292;stroke-linejoin:miter;stroke-miterlimit:20;stroke-dasharray:none;stroke-opacity:1;paint-order:markers fill stroke;stop-color:#000000"
       d="m 367.83107,278.30514 c 0,0 18.8138,-11.28691 35.78745,-17.14255 21.33342,-7.35971 36.02171,-4.21447 36.02171,-4.21447 0,0 -8.54999,7.74761 -19.23449,12.45735 -10.6845,4.70977 -26.31595,7.87841 -26.31595,7.87841 0,0 16.78916,-6.33617 23.69185,-10.17065 4.34686,-2.41469 8.67101,-5.62534 8.67101,-5.62534 0,0 -10.71906,-0.0157 -22.26374,3.07563 -10.02692,2.68491 -36.35784,13.74162 -36.35784,13.74162 z"
       id="path6357" /></g><style
     type="text/css"
     id="style1737">
	.st0{opacity:0.1;}
	.st1{opacity:0.2;}
	.st2{opacity:0.3;}
	.st3{opacity:0.4;}
	.st4{opacity:0.5;}
	.st5{opacity:0.6;}
	.st6{opacity:0.7;}
	.st7{opacity:0.8;}
	.st8{opacity:0.9;}
	.st9{fill:none;stroke:#000000;stroke-width:0.5619;stroke-miterlimit:10;}
	.st10{fill:url(#SVGID_1_);}
	.st11{fill:url(#SVGID_00000155114862019631449930000004390687238541552770_);}
	.st12{fill:none;stroke:#000000;stroke-width:0.7735;stroke-miterlimit:10;}
	.st13{fill:none;stroke:#000000;stroke-width:0.3067;stroke-miterlimit:10;}
	.st14{fill:none;stroke:#000000;stroke-width:1.0789;stroke-miterlimit:10;}
	.st15{fill-rule:evenodd;clip-rule:evenodd;fill:none;stroke:#000000;stroke-width:3.2744;stroke-miterlimit:2.6131;}
	.st16{fill-rule:evenodd;clip-rule:evenodd;}
	.st17{fill:none;stroke:#000000;stroke-width:0.4457;stroke-miterlimit:10;}
	.st18{font-family:'HelveticaNeue';}
	.st19{font-size:3.6407px;}
</style></svg>
