<?xml version="1.0" encoding="UTF-8" standalone="no"?>
<!-- Created with Inkscape (http://www.inkscape.org/) -->

<svg
   width="526.354"
   height="419.63004"
   viewBox="0 0 139.2645 111.02711"
   version="1.1"
   id="svg5"
   xml:space="preserve"
   xmlns="http://www.w3.org/2000/svg"
   xmlns:svg="http://www.w3.org/2000/svg"><defs
     id="defs2" /><g
     id="layer5"
     transform="translate(0,-174.72289)"><path
       style="fill:#222222;fill-opacity:1;fill-rule:evenodd;stroke:#ff090f;stroke-width:1.32292;stroke-linejoin:miter;stroke-miterlimit:20;stroke-dasharray:none;stroke-opacity:1;paint-order:markers fill stroke;stop-color:#000000"
       d="m 125.14792,207.16875 c 0,0 -14.02292,5.55625 -29.104171,20.10833 -15.08125,14.55208 -26.9875,32.27917 -26.9875,32.27917 l 40.216671,-18.78542 c 0,0 -10.756974,14.12383 -22.489588,24.60625 -32.279166,28.83958 -88.370832,65.0875 -88.370832,65.0875 0,0 60.589582,-30.95625 98.160416,-63.23542 15.138244,-13.0061 37.306244,-41.275 37.306244,-41.275 l -37.835411,13.49375 c 0,0 0.79375,-3.175 7.408331,-11.1125 6.61459,-7.9375 21.69584,-21.16666 21.69584,-21.16666 z"
       id="path9042" /><path
       style="fill:#222222;fill-opacity:1;fill-rule:evenodd;stroke:#ff090f;stroke-width:1.32292;stroke-linejoin:miter;stroke-miterlimit:20;stroke-dasharray:none;stroke-opacity:1;paint-order:markers fill stroke;stop-color:#000000"
       d="m 85.32423,258.90419 -41.352494,19.83045 c 0,0 17.411596,-37.17006 40.165763,-58.33673 22.754161,-21.16667 50.800001,-43.12708 50.800001,-43.12708 0,0 -53.181251,22.48959 -87.312501,47.36042 -30.958794,22.55912 -43.1270824,37.04166 -43.1270824,37.04166 0,0 18.3358864,-12.26678 28.0458334,-17.4625 7.34303,-3.9292 22.754166,-10.31875 22.754166,-10.31875 l -69.849999,89.42917 c 0,0 34.746194,-17.41667 50.866261,-28.181 16.560041,-11.05812 49.010052,-36.23564 49.010052,-36.23564 z"
       id="path9044" /><path
       style="fill:#222222;fill-opacity:1;fill-rule:evenodd;stroke:#113aff;stroke-width:1.32292;stroke-linejoin:miter;stroke-miterlimit:20;stroke-dasharray:none;stroke-opacity:1;paint-order:markers fill stroke;stop-color:#000000"
       d="m 135.46666,231.775 c 0,0 -4.96289,21.93382 -6.31789,44.89388 -1.05835,17.9332 -1.78789,71.57691 -1.78789,71.57691 0,0 -2.61304,-46.03895 -19.67547,-56.1458 -12.99873,-7.69974 -44.714577,7.40834 -44.714577,7.40834 l 50.535417,-37.83541 -14.816667,17.39279 c 0,0 8.482467,-1.95466 11.932847,0.0243 5.10008,2.92517 8.93713,15.20642 8.93713,15.20642 0,0 0.84104,-16.62773 2.44546,-23.86017 3.39419,-15.30044 13.46164,-38.66127 13.46164,-38.66127 z"
       id="path9046" /><path
       style="fill:#222222;fill-opacity:1;fill-rule:evenodd;stroke:#113aff;stroke-width:1.32292;stroke-linejoin:miter;stroke-miterlimit:20;stroke-dasharray:none;stroke-opacity:1;paint-order:markers fill stroke;stop-color:#000000"
       d="m -18.334689,283.23021 c 0,0 19.6443097,-13.65747 30.86963,-20.95393 11.22532,-7.29646 24.134438,-14.78 24.134438,-14.78 L 5.4255714,287.72035 20.205576,262.27628 c 0,0 -8.377489,4.67722 -13.6159715,7.85773 -5.2384827,3.1805 -24.9242935,13.0962 -24.9242935,13.0962 z"
       id="path9255" /></g><style
     type="text/css"
     id="style1737">
	.st0{opacity:0.1;}
	.st1{opacity:0.2;}
	.st2{opacity:0.3;}
	.st3{opacity:0.4;}
	.st4{opacity:0.5;}
	.st5{opacity:0.6;}
	.st6{opacity:0.7;}
	.st7{opacity:0.8;}
	.st8{opacity:0.9;}
	.st9{fill:none;stroke:#000000;stroke-width:0.5619;stroke-miterlimit:10;}
	.st10{fill:url(#SVGID_1_);}
	.st11{fill:url(#SVGID_00000155114862019631449930000004390687238541552770_);}
	.st12{fill:none;stroke:#000000;stroke-width:0.7735;stroke-miterlimit:10;}
	.st13{fill:none;stroke:#000000;stroke-width:0.3067;stroke-miterlimit:10;}
	.st14{fill:none;stroke:#000000;stroke-width:1.0789;stroke-miterlimit:10;}
	.st15{fill-rule:evenodd;clip-rule:evenodd;fill:none;stroke:#000000;stroke-width:3.2744;stroke-miterlimit:2.6131;}
	.st16{fill-rule:evenodd;clip-rule:evenodd;}
	.st17{fill:none;stroke:#000000;stroke-width:0.4457;stroke-miterlimit:10;}
	.st18{font-family:'HelveticaNeue';}
	.st19{font-size:3.6407px;}
</style></svg>
