<?xml version="1.0" encoding="UTF-8" standalone="no"?>
<!-- Created with Inkscape (http://www.inkscape.org/) -->

<svg
   width="1394.0122"
   height="307.91299"
   viewBox="0 0 368.8324 81.468646"
   version="1.1"
   id="svg5"
   xml:space="preserve"
   xmlns="http://www.w3.org/2000/svg"
   xmlns:svg="http://www.w3.org/2000/svg"><defs
     id="defs2" /><g
     id="g7190"
     style="display:inline;fill:#222222;fill-opacity:1;paint-order:markers fill stroke"><path
       style="fill:#222222;fill-opacity:1;fill-rule:evenodd;stroke:#ff090f;stroke-width:1.32292;stroke-linejoin:miter;stroke-miterlimit:20;stroke-dasharray:none;stroke-opacity:1;paint-order:markers fill stroke;stop-color:#000000"
       d="m 182.19825,-25.036654 c 0,0 -12.82568,12.376655 -34.68078,28.9145243 C 126.69926,19.631108 84.180583,35.834502 84.180583,35.834502 c 0,0 16.667847,-9.237752 24.455557,-14.697148 5.73613,-4.02118 16.31877,-13.2421687 16.31877,-13.2421687 0,0 -20.75995,14.0019027 -55.124604,24.8615037 -40.656426,12.847868 -50.071507,13.4094 -50.071507,13.4094 0,0 23.889015,-8.072502 35.377702,-13.219548 12.062123,-5.403951 35.08293,-18.478787 35.08293,-18.478787 0,0 -53.548484,20.872767 -96.7415265,27.82574 -39.9931905,6.437879 -53.9218975,6.238784 -53.9218975,6.238784 0,0 32.732555,15.03507 56.6374536,16.508623 35.4932604,2.187887 78.9015004,-8.327257 78.9015004,-8.327257 0,0 -20.452615,9.974618 -31.092159,13.956702 -10.744829,4.021489 -32.938008,9.985045 -32.938008,9.985045 0,0 34.724419,-0.943522 75.734718,-13.129117 C 127.80981,55.340679 183.9812,22.281556 183.9812,22.281556 c 0,0 -36.93332,16.916559 -55.87523,24.213031 -14.67902,5.654395 -44.698829,15.133673 -44.698829,15.133673 0,0 84.716589,-36.622777 112.862619,-58.5872807 28.14605,-21.9645033 59.27829,-52.8255263 59.27829,-52.8255263 z"
       id="path7184" /><path
       style="fill:#222222;fill-opacity:1;fill-rule:evenodd;stroke:#113aff;stroke-width:1.32292;stroke-linejoin:miter;stroke-miterlimit:20;stroke-dasharray:none;stroke-opacity:1;paint-order:markers fill stroke;stop-color:#000000"
       d="m -41.326576,41.709817 c 0,0 47.750661,-4.756603 84.228086,-18.401958 18.419968,-6.89048 34.681595,-18.1375147 34.681595,-18.1375147 0,0 -32.625652,8.1335367 -57.563568,8.4316617 C -4.9183796,13.90013 -36.777744,0.19053634 -36.777744,0.19053634 c 0,0 28.6201421,14.37110066 46.251935,17.37770866 15.498963,2.642914 42.01485,-2.439203 42.01485,-2.439203 0,0 -12.312761,6.059813 -35.515833,13.452175 -16.9581734,5.402775 -57.299784,13.1286 -57.299784,13.1286 z"
       id="path7186" /><path
       style="fill:#222222;fill-opacity:1;fill-rule:evenodd;stroke:#113aff;stroke-width:1.32292;stroke-linejoin:miter;stroke-miterlimit:20;stroke-dasharray:none;stroke-opacity:1;paint-order:markers fill stroke;stop-color:#000000"
       d="m 154.12095,45.792159 c 0,0 33.25434,-14.102987 64.57651,-35.301807 47.34014,-32.039757 75.63444,-59.122798 75.63444,-59.122798 l 14.35931,1.011371 c 0,0 -36.53588,34.738537 -73.77572,59.337594 -25.27568,16.69603 -40.58377,22.858105 -40.58377,22.858105 0,0 49.53296,-10.104869 74.36419,-19.725346 30.62101,-11.8636307 85.68485,-47.97377 85.68485,-47.97377 l 11.74379,-1.812549 c 0,0 -57.10286,39.9511303 -97.88744,54.746223 -40.78459,14.795092 -114.11616,25.982977 -114.11616,25.982977 z"
       id="path7188" /></g><style
     type="text/css"
     id="style1737">
	.st0{opacity:0.1;}
	.st1{opacity:0.2;}
	.st2{opacity:0.3;}
	.st3{opacity:0.4;}
	.st4{opacity:0.5;}
	.st5{opacity:0.6;}
	.st6{opacity:0.7;}
	.st7{opacity:0.8;}
	.st8{opacity:0.9;}
	.st9{fill:none;stroke:#000000;stroke-width:0.5619;stroke-miterlimit:10;}
	.st10{fill:url(#SVGID_1_);}
	.st11{fill:url(#SVGID_00000155114862019631449930000004390687238541552770_);}
	.st12{fill:none;stroke:#000000;stroke-width:0.7735;stroke-miterlimit:10;}
	.st13{fill:none;stroke:#000000;stroke-width:0.3067;stroke-miterlimit:10;}
	.st14{fill:none;stroke:#000000;stroke-width:1.0789;stroke-miterlimit:10;}
	.st15{fill-rule:evenodd;clip-rule:evenodd;fill:none;stroke:#000000;stroke-width:3.2744;stroke-miterlimit:2.6131;}
	.st16{fill-rule:evenodd;clip-rule:evenodd;}
	.st17{fill:none;stroke:#000000;stroke-width:0.4457;stroke-miterlimit:10;}
	.st18{font-family:'HelveticaNeue';}
	.st19{font-size:3.6407px;}
</style></svg>
