<?xml version="1.0" encoding="UTF-8" standalone="no"?>
<!-- Created with Inkscape (http://www.inkscape.org/) -->

<svg
   width="534.08582"
   height="340.49704"
   viewBox="0 0 141.31021 90.089842"
   version="1.1"
   id="svg5"
   xml:space="preserve"
   xmlns="http://www.w3.org/2000/svg"
   xmlns:svg="http://www.w3.org/2000/svg"><defs
     id="defs2" /><g
     id="layer4"
     transform="translate(-366.68979)"><path
       style="fill:#222222;fill-opacity:1;fill-rule:evenodd;stroke:#113aff;stroke-width:1.32292;stroke-linejoin:miter;stroke-miterlimit:20;stroke-dasharray:none;stroke-opacity:1;paint-order:markers fill stroke;stop-color:#000000"
       d="m 405.9824,89.428382 c 0,0 23.07345,-6.948351 36.2952,-14.592916 21.82746,-12.620223 35.78162,-28.218289 35.78162,-28.218289 0,0 -4.06546,6.714032 -6.4706,9.803824 -2.95695,3.798677 -9.73251,10.669561 -9.73251,10.669561 0,0 15.99361,-12.233071 22.48434,-20.96105 10.54896,-14.185027 11.05704,-18.765277 11.05704,-18.765277 l -4.10199,2.512874 c 0,0 7.02028,-8.532747 19.08238,-34.7414143 12.57367,-27.3202187 14.59291,-39.6627967 14.59291,-39.6627967 l -12.05821,1.406972 c 0,0 -5.05048,26.520233 -11.72232,39.2197618 -8.23414,15.6732712 -28.43242,41.6135672 -28.43242,41.6135672 0,0 9.83312,-22.027183 11.49037,-44.4396784 1.85286,-25.0578566 -0.0609,-38.5391436 -0.0609,-38.5391436 l -49.7674,0.364342 c 0,0 12.64006,10.300707 17.84704,29.46922 4.16523,15.33348203 0.18709,36.463486 0.18709,36.463486 0,0 6.092,-13.1469604 7.74261,-20.15077867 1.37546,-5.83632483 1.72529,-17.90571533 1.72529,-17.90571533 0,0 2.99345,27.502034 -3.36759,43.217483 -6.361,15.715448 -24.3215,36.669377 -24.3215,36.669377 l 20.95393,-16.65089 c 0,0 -13.89026,16.933251 -22.07648,24.134438 -8.30112,7.302255 -27.12786,19.083043 -27.12786,19.083043 z"
       id="path8638" /><path
       style="fill:#222222;fill-opacity:1;fill-rule:evenodd;stroke:#ff090f;stroke-width:1.32292;stroke-linejoin:miter;stroke-miterlimit:20;stroke-dasharray:none;stroke-opacity:1;paint-order:markers fill stroke;stop-color:#000000"
       d="m 435.18089,-32.316773 c 0,0 11.82281,8.245833 14.02292,24.3416663 3.53588,25.8681947 -6.35,45.2437497 -6.35,45.2437497 l 10.27335,-9.402109 c 0,0 -8.64929,19.612006 -24.18667,32.247067 -24.2807,19.74517 -56.20126,25.838375 -56.20126,25.838375 0,0 31.74999,-13.361458 44.97916,-27.78125 5.82347,-6.347579 10.71562,-13.626041 10.71562,-13.626041 0,0 -9.88448,9.878103 -15.47812,14.022916 -5.45042,4.038691 -17.4625,10.451042 -17.4625,10.451042 0,0 31.35312,-23.547916 34.52812,-45.508333 3.175,-21.9604167 -3.83645,-32.2791667 -3.83645,-32.2791667 V 7.1061436 c 0,0 -5.09775,-13.6155354 -12.89222,-20.3316296 -6.68427,-5.759496 -23.62028,-11.947537 -23.62028,-11.947537 z"
       id="path8640" /></g><style
     type="text/css"
     id="style1737">
	.st0{opacity:0.1;}
	.st1{opacity:0.2;}
	.st2{opacity:0.3;}
	.st3{opacity:0.4;}
	.st4{opacity:0.5;}
	.st5{opacity:0.6;}
	.st6{opacity:0.7;}
	.st7{opacity:0.8;}
	.st8{opacity:0.9;}
	.st9{fill:none;stroke:#000000;stroke-width:0.5619;stroke-miterlimit:10;}
	.st10{fill:url(#SVGID_1_);}
	.st11{fill:url(#SVGID_00000155114862019631449930000004390687238541552770_);}
	.st12{fill:none;stroke:#000000;stroke-width:0.7735;stroke-miterlimit:10;}
	.st13{fill:none;stroke:#000000;stroke-width:0.3067;stroke-miterlimit:10;}
	.st14{fill:none;stroke:#000000;stroke-width:1.0789;stroke-miterlimit:10;}
	.st15{fill-rule:evenodd;clip-rule:evenodd;fill:none;stroke:#000000;stroke-width:3.2744;stroke-miterlimit:2.6131;}
	.st16{fill-rule:evenodd;clip-rule:evenodd;}
	.st17{fill:none;stroke:#000000;stroke-width:0.4457;stroke-miterlimit:10;}
	.st18{font-family:'HelveticaNeue';}
	.st19{font-size:3.6407px;}
</style></svg>
